<svg xmlns="http://www.w3.org/2000/svg" viewBox="0 0 680 400" font-family="-apple-system,Segoe UI,Helvetica,Arial,sans-serif">
  <defs>
    <linearGradient id="sar" x1="0" y1="0" x2="0" y2="1">
      <stop offset="0" stop-color="#26262d"/>
      <stop offset="1" stop-color="#16161a"/>
    </linearGradient>
  </defs>

  <!-- full-bleed SAR quicklook canvas (no transparent margins) -->
  <rect x="0" y="0" width="680" height="400" fill="url(#sar)"/>
  <rect x="0.5" y="0.5" width="679" height="399" fill="none" stroke="#3a3a42" stroke-width="1"/>

  <!-- faint background structure (suggests speckle / scene) -->
  <g opacity="0.10" fill="#ffffff">
    <rect x="0" y="55"  width="680" height="2"/>
    <rect x="0" y="135" width="680" height="2"/>
    <rect x="0" y="250" width="680" height="2"/>
    <rect x="0" y="345" width="680" height="2"/>
  </g>

  <!-- RFI stripes: thin, bright, near-full-width horizontal bands -->
  <g fill="#cfd2da">
    <rect x="40"  y="96"  width="600" height="11" opacity="0.9"/>
    <rect x="150" y="201" width="430" height="8"  opacity="0.85"/>
    <rect x="70"  y="300" width="540" height="13" opacity="0.88"/>
  </g>

  <!-- predicted detections (model output) -->
  <g fill="none" stroke="#33d17a" stroke-width="2">
    <rect x="36"  y="90"  width="608" height="24"/>
    <rect x="146" y="196" width="438" height="19"/>
    <rect x="66"  y="293" width="548" height="28"/>
  </g>
  <g fill="#33d17a" font-size="13" font-weight="600">
    <text x="40" y="86">RFI 0.94</text>
    <text x="150" y="192">RFI 0.88</text>
    <text x="70" y="289">RFI 0.96</text>
  </g>

  <!-- axes hints (inside the canvas) -->
  <text x="18" y="205" fill="#9aa0aa" font-size="12" transform="rotate(-90 18 205)" text-anchor="middle">azimuth</text>
  <text x="340" y="390" fill="#9aa0aa" font-size="12" text-anchor="middle">range</text>

  <!-- honesty label -->
  <text x="662" y="390" fill="#7b818c" font-size="11" text-anchor="end">schematic &#8212; illustrative, not a real detection</text>

  <!-- legend -->
  <g font-size="12">
    <rect x="452" y="20" width="18" height="9" fill="#cfd2da"/>
    <text x="476" y="29" fill="#cfd2da">RFI stripe (ground truth)</text>
    <rect x="452" y="36" width="18" height="11" fill="none" stroke="#33d17a" stroke-width="2"/>
    <text x="476" y="46" fill="#33d17a">predicted box</text>
  </g>
</svg>
