<svg xmlns="http://www.w3.org/2000/svg" viewBox="0 0 680 430" font-family="-apple-system,Segoe UI,Helvetica,Arial,sans-serif">
  <defs>
    <linearGradient id="sar" x1="0" y1="0" x2="0" y2="1">
      <stop offset="0" stop-color="#26262d"/>
      <stop offset="1" stop-color="#17171b"/>
    </linearGradient>
  </defs>

  <!-- SAR quicklook canvas -->
  <rect x="20" y="20" width="640" height="360" fill="url(#sar)" stroke="#3a3a42" stroke-width="1"/>

  <!-- faint background structure (suggests speckle / scene) -->
  <g opacity="0.10" fill="#ffffff">
    <rect x="20" y="60"  width="640" height="2"/>
    <rect x="20" y="140" width="640" height="2"/>
    <rect x="20" y="250" width="640" height="2"/>
    <rect x="20" y="330" width="640" height="2"/>
  </g>

  <!-- RFI stripes: thin, bright, near-full-width horizontal bands -->
  <g fill="#cfd2da">
    <rect x="20"  y="96"  width="640" height="11" opacity="0.9"/>
    <rect x="120" y="201" width="470" height="8"  opacity="0.85"/>
    <rect x="60"  y="300" width="560" height="13" opacity="0.88"/>
  </g>

  <!-- predicted detections (model output) -->
  <g fill="none" stroke="#33d17a" stroke-width="2">
    <rect x="16"  y="90"  width="648" height="24"/>
    <rect x="116" y="196" width="478" height="19"/>
    <rect x="56"  y="293" width="568" height="28"/>
  </g>
  <g fill="#33d17a" font-size="13" font-weight="600">
    <text x="20" y="86">RFI 0.94</text>
    <text x="120" y="192">RFI 0.88</text>
    <text x="60" y="289">RFI 0.96</text>
  </g>

  <!-- axes hints -->
  <text x="12" y="205" fill="#9aa0aa" font-size="12" transform="rotate(-90 12 205)" text-anchor="middle">azimuth</text>
  <text x="340" y="398" fill="#9aa0aa" font-size="12" text-anchor="middle">range</text>

  <!-- honesty label -->
  <text x="656" y="376" fill="#6b7280" font-size="11" text-anchor="end">schematic — illustrative, not a real detection</text>

  <!-- legend -->
  <g font-size="12">
    <rect x="500" y="36" width="18" height="9" fill="#cfd2da"/>
    <text x="524" y="45" fill="#cfd2da">RFI stripe (ground truth)</text>
    <rect x="500" y="52" width="18" height="11" fill="none" stroke="#33d17a" stroke-width="2"/>
    <text x="524" y="62" fill="#33d17a">predicted box</text>
  </g>
</svg>
